<svg width="232" height="123" fill="none" xmlns="http://www.w3.org/2000/svg"><path d="M57.38 123c-1.472 0-2.851-.275-4.139-.824-1.287-.549-2.482-1.372-3.586-2.471l-46.62-46.4C1.01 71.293 0 68.683 0 65.476c0-3.199 1.011-5.805 3.034-7.819 2.023-2.013 4.598-3.02 7.725-3.02 3.126 0 5.7 1.007 7.724 3.02l39.172 38.987 15.448 15.375-8 7.687c-1.103 1.099-2.298 1.922-3.586 2.471a10.437 10.437 0 0 1-4.138.824Zm62.344-.275c-1.471 0-2.85-.23-4.138-.691-1.287-.454-2.483-1.23-3.586-2.329L65.103 73.031c-2.022-2.013-3.034-4.623-3.034-7.83 0-3.2 1.011-5.806 3.034-7.82 2.023-2.013 4.598-3.02 7.725-3.02 3.126 0 5.7 1.007 7.724 3.02l39.172 38.987L213.517 3.02C215.54 1.007 218.115 0 221.241 0c3.127 0 5.702 1.007 7.725 3.02C230.989 5.033 232 7.64 232 10.84c0 3.206-1.011 5.816-3.034 7.83L127.448 119.705c-1.103 1.099-2.299 1.875-3.586 2.329-1.287.461-2.667.691-4.138.691Zm0-57.381L104 49.969l46.897-46.674c2.023-2.014 4.641-3.02 7.856-3.02 3.222 0 5.845 1.006 7.868 3.02 2.023 2.013 3.034 4.576 3.034 7.687 0 3.112-1.011 5.674-3.034 7.688l-46.897 46.674Z" fill="url(#a)"/><defs><linearGradient id="a" x1="9.559" y1="61.794" x2="157.43" y2="-37.991" gradientUnits="userSpaceOnUse"><stop stop-color="#FFB200"/><stop offset="1" stop-color="#FFE404"/></linearGradient></defs></svg>