<svg width="193" height="192" fill="none" xmlns="http://www.w3.org/2000/svg"><g filter="url(#a)"><circle cx="96.025" cy="95.999" r="55.999" fill="#D00000" fill-opacity=".7"/><circle cx="96.025" cy="95.999" r="55.499" stroke="#D00000"/></g><g filter="url(#b)"><ellipse cx="95.999" cy="96.554" rx="55.999" ry="55.444" fill="#fff"/></g><g filter="url(#c)"><path d="M145.691 96.345c0 27.253-22.093 49.346-49.346 49.346C69.093 145.691 47 123.598 47 96.345 47 69.093 69.093 47 96.345 47c27.253 0 49.346 22.093 49.346 49.345Z" fill="#D00000"/></g><path d="M92.795 102.56c0 3.63-1.08 6.39-3.24 8.28-2.16 1.86-5.295 2.79-9.405 2.79-4.44 0-8.115-1.215-11.025-3.645-.33-.3-.33-.72 0-1.26l3.105-4.815c.21-.39.63-.39 1.26 0 2.1 1.26 4.32 1.89 6.66 1.89 2.7 0 4.05-1.245 4.05-3.735 0-2.22-1.41-3.33-4.23-3.33-.93 0-1.965.165-3.105.495-.51.18-.885 0-1.125-.54l-1.305-3.015c-.18-.48-.09-.9.27-1.26l2.7-2.52c1.8-1.8 2.985-2.94 3.555-3.42h-9.54c-.6 0-.9-.3-.9-.9v-5.85c0-.6.3-.9.9-.9h19.125c.6 0 .9.3.9.9v4.77c0 .42-.165.795-.495 1.125l-6.57 6.12v.09c2.4-.12 4.395.69 5.985 2.43 1.62 1.71 2.43 3.81 2.43 6.3Zm21.821-5.76 8.46 15.12c.18.3.195.555.045.765-.12.21-.345.315-.675.315h-8.01c-.45 0-.795-.225-1.035-.675l-4.455-9.045-4.455 9.045c-.24.45-.585.675-1.035.675h-8.01c-.33 0-.57-.105-.72-.315-.12-.21-.09-.465.09-.765l8.46-15.12-7.605-14.895c-.15-.33-.165-.585-.045-.765.15-.21.39-.315.72-.315h7.65c.54 0 .885.225 1.035.675l3.915 9.315 3.915-9.315c.15-.45.495-.675 1.035-.675h7.65c.33 0 .555.105.675.315.15.18.15.435 0 .765L114.616 96.8Z" fill="#fff"/><defs><filter id="a" x=".026" y="0" width="191.997" height="191.997" filterUnits="userSpaceOnUse" color-interpolation-filters="sRGB"><feFlood flood-opacity="0" result="BackgroundImageFix"/><feBlend in="SourceGraphic" in2="BackgroundImageFix" result="shape"/><feGaussianBlur stdDeviation="20" result="effect1_foregroundBlur_1_167"/></filter><filter id="b" x="0" y="1.11" width="191.997" height="190.888" filterUnits="userSpaceOnUse" color-interpolation-filters="sRGB"><feFlood flood-opacity="0" result="BackgroundImageFix"/><feGaussianBlur in="BackgroundImageFix" stdDeviation="20"/><feComposite in2="SourceAlpha" operator="in" result="effect1_backgroundBlur_1_167"/><feColorMatrix in="SourceAlpha" values="0 0 0 0 0 0 0 0 0 0 0 0 0 0 0 0 0 0 127 0" result="hardAlpha"/><feOffset dy="4"/><feGaussianBlur stdDeviation="2"/><feComposite in2="hardAlpha" operator="out"/><feColorMatrix values="0 0 0 0 0 0 0 0 0 0 0 0 0 0 0 0 0 0 0.25 0"/><feBlend in2="effect1_backgroundBlur_1_167" result="effect2_dropShadow_1_167"/><feBlend in="SourceGraphic" in2="effect2_dropShadow_1_167" result="shape"/></filter><filter id="c" x="7" y="7" width="178.691" height="178.691" filterUnits="userSpaceOnUse" color-interpolation-filters="sRGB"><feFlood flood-opacity="0" result="BackgroundImageFix"/><feGaussianBlur in="BackgroundImageFix" stdDeviation="20"/><feComposite in2="SourceAlpha" operator="in" result="effect1_backgroundBlur_1_167"/><feColorMatrix in="SourceAlpha" values="0 0 0 0 0 0 0 0 0 0 0 0 0 0 0 0 0 0 127 0" result="hardAlpha"/><feOffset dy="4"/><feGaussianBlur stdDeviation="2"/><feComposite in2="hardAlpha" operator="out"/><feColorMatrix values="0 0 0 0 0 0 0 0 0 0 0 0 0 0 0 0 0 0 0.25 0"/><feBlend in2="effect1_backgroundBlur_1_167" result="effect2_dropShadow_1_167"/><feBlend in="SourceGraphic" in2="effect2_dropShadow_1_167" result="shape"/></filter></defs></svg>