<svg width="189" height="88" fill="none" xmlns="http://www.w3.org/2000/svg"><path d="M88.868 16.43h3.675v11.923h2.932c.574-3.753 2.268-6.855 5.083-9.305 2.841-2.475 6.151-3.713 9.93-3.713 4.196 0 7.754 1.485 10.673 4.456 2.945 2.945 4.418 6.516 4.418 10.712 0 4.17-1.473 7.741-4.418 10.712-2.945 2.972-6.503 4.457-10.673 4.457-3.91 0-7.311-1.342-10.204-4.027-2.867-2.684-4.457-5.981-4.77-9.89h-2.97v12.823h-3.676v-28.15Zm21.62 2.54c-3.154 0-5.851 1.134-8.093 3.402-2.215 2.267-3.323 4.978-3.323 8.131 0 3.18 1.108 5.904 3.323 8.171 2.216 2.242 4.913 3.362 8.093 3.362 3.18 0 5.877-1.12 8.093-3.362 2.241-2.267 3.362-4.991 3.362-8.17 0-3.154-1.121-5.865-3.362-8.132-2.242-2.268-4.939-3.402-8.093-3.402Zm22.525 17.32v8.288h-3.675v-28.15c2.476 0 4.47.157 5.981.47 2.32.468 4.262 1.602 5.825 3.4 1.564 1.799 2.346 3.858 2.346 6.178 0 2.788-1.042 5.121-3.127 6.997-2.085 1.877-4.535 2.815-7.35 2.815Zm0-3.636c1.772 0 3.349-.587 4.73-1.76 1.382-1.199 2.072-2.671 2.072-4.417 0-1.747-.703-3.22-2.111-4.418-1.355-1.12-2.919-1.681-4.691-1.681v12.276Zm16.886 12.94v-3.48c3.727 0 5.891-.899 6.49-2.697.183-.547.274-1.59.274-3.128-2.789 0-5.213-.938-7.272-2.815-2.059-1.902-3.088-4.235-3.088-6.997V16.428h3.596v10.048c0 1.746.704 3.218 2.111 4.417 1.33 1.173 2.88 1.76 4.653 1.76V16.428h3.675v20.916c0 3.075-1.017 5.278-3.05 6.607-1.668 1.095-4.131 1.642-7.389 1.642ZM189 41.958c-2.945 2.476-6.242 3.714-9.891 3.714-4.144 0-7.702-1.485-10.673-4.457-2.971-2.997-4.457-6.568-4.457-10.712 0-4.17 1.473-7.74 4.418-10.712 2.971-2.97 6.542-4.457 10.712-4.457 3.675 0 6.972 1.265 9.891 3.793v5.59c-1.042-1.798-2.437-3.205-4.183-4.222-1.72-1.017-3.623-1.525-5.708-1.525-3.154 0-5.851 1.134-8.093 3.402-2.241 2.267-3.362 4.978-3.362 8.131 0 3.18 1.108 5.904 3.323 8.171 2.242 2.242 4.952 3.362 8.132 3.362 2.033 0 3.936-.508 5.708-1.524A11.404 11.404 0 0 0 189 36.289v5.67Zm-91.034 12.59V52h-5.927C90.398 52 89 53.147 89 54.548v15.29h3.04v-15.29h5.926Zm4.55 15.289v-6.93h2.887c1.642 0 3.04-.893 3.04-1.988v-6.37c0-1.402-1.398-2.549-3.04-2.549h-5.926v17.837h3.039Zm2.887-15.289v6.37h-2.887v-6.37h2.887ZM116.504 52v12.715h-2.888V52h-3.039v12.715c0 1.402 1.398 2.574 3.039 2.574h2.888v2.548h-5.927v2.548h5.927c1.671 0 3.039-1.197 3.039-2.548V52h-3.039Zm11.397 17.837h3.039V52h-8.966v17.837h3.039V54.548h2.888v15.29Zm11.396 0h3.04V52h-8.966v17.837h3.039V54.548h2.887v15.29Z" fill="#fff"/><mask id="d" fill="#fff"><path d="M41.194 0c4.753.335 9.474.908 14.177 1.685 5.377.888 10.645 2.165 15.784 3.976.29.102.56.262.848.368 4.038 1.497 4.04 1.496 4.04 5.823 0 12.136-.127 24.273.045 36.405.103 7.312-3.045 13.084-7.804 18.154-8.137 8.665-18.096 14.745-28.74 19.802-.507.239-.959.567-1.437.854h-.308c-3.113-1.676-6.248-3.309-9.334-5.034-8.12-4.54-15.623-9.89-21.823-16.9C2.94 60.946.194 56.157.112 50.504-.094 36.511.053 22.512.022 8.516c0-.936.338-1.368 1.178-1.678 6.37-2.357 12.932-4.011 19.6-5.26C25.496.698 30.267.406 35.02.001L41.194 0Zm30.984 31.198c0-6.533-.04-13.068.034-19.597.015-1.328-.431-1.896-1.65-2.284-7.993-2.552-16.136-4.338-24.521-5.055C31.995 3.062 18.39 5.08 5.074 9.5c-.851.281-1.185.69-1.181 1.65.043 12.814.033 25.616.048 38.424-.013.821.039 1.642.153 2.454.854 5.342 4.002 9.382 7.649 13.069 7.32 7.406 16.159 12.608 25.384 17.242.573.287 1.083.416 1.726.09 9.484-4.796 18.605-10.132 26.065-17.864 4.765-4.948 7.826-10.54 7.33-17.787-.354-5.17-.069-10.385-.07-15.58Z"/><path d="M70.709 31.833c0 5.504-.16 11.013.048 16.508.191 5.064-1.725 9.196-4.805 12.966-5.663 6.926-12.966 11.772-20.585 16.211-1.015.594-2.181.999-3.086 1.727-2.847 2.291-5.416 1.838-8.464.079-7.993-4.614-15.813-9.402-22.15-16.24-4.083-4.414-6.52-9.333-6.363-15.648.286-11.565.095-23.142.053-34.715 0-1.043.265-1.558 1.284-1.89 20.883-6.815 41.757-6.886 62.652-.045 1.141.373 1.457.911 1.446 2.073-.062 6.32-.032 12.647-.03 18.974Zm-48.174 25.68c.264-.795-.053-1.243-.22-1.715-1.73-4.922-1.91-9.939-.875-15.014.156-.761.197-2.186 1.599-.823.652.634.808.012.998-.491a24.456 24.456 0 0 1 3.63-6.413c1.575-2.01 1.568-2.01-.547-3.254-.253-.149-.634-.353-.652-.56-.039-.417.442-.49.744-.65 1.65-.878 3.456-.888 5.26-.875 1.099.011 2.335.017 2.988-.895.654-.91 1.164-1.309 2.14-.686.824.527 1.745-.58 2.61.27.717.704 1.75.824 2.754.743 2.258-.18 4.522-.254 6.77.047 1.198.158 1.396-.311 1.237-1.37-.826-5.476-6.842-8.358-11.561-5.48-.988.603-1.812.762-2.791-.03-1.65-1.33-3.553-1.512-5.54-.875-2.295.737-4.575 1.522-6.872 2.252-.358.114-.846.472-1.142.037-1.361-2.02-3.68-2.665-5.565-3.924-.577-.388-1.306-.602-1.997-.753-.554-.127-.951.315-1.237.761-.234.364.01.598.325.686 2.247.635 3.02 2.577 4.039 4.37.41.725.278 2.61 2.139 1.566.277-.155.39.266.372.507-.041.61-.059 1.235-.206 1.824-.88 3.508-2.6 6.691-3.947 10.023-1.441 3.564-1.94 7.218-1.346 11.013.062.395.14 1.255.566.985 1.836-1.17 1.541.634 1.795 1.293 1.05 2.69 2.211 5.28 4.532 7.431Zm30.906-21.706c-1.121-2.727-2.979-4.076-5.156-5.06-.32-.144-.955-.098-1.173.128-1.812 1.86-3.183.907-4.519-.6-.165-.186-.42-.292-.634-.43-4.821-3.07-10.924.722-11.182 4.208-.254 3.426-.05 6.88-.01 10.32.009.693.254 1.324 1.123 1.409.99.098 2.48-.53 2.204 1.486-.013.086.303.253.487.323 2.116.83 4.263 1.157 6.45.275.497-.2 1.241-.355 1.049-1.088-.254-.975.22-1.06.933-.981 1.94.217 2.538-.74 2.467-2.551-.127-2.97-.433-5.932-.136-8.923.135-1.343.708-1.484 1.767-1.3 2.174.375 4.001 1.553 6.33 2.784ZM33.129 63.242c-.179-.168-.355-.337-.536-.5-3.292-2.962-5.576-6.684-7.568-10.544-1.153-2.236-1.32-4.87-1.834-7.375-.162.992-.22 1.998-.175 3.002.12 3.958.92 7.747 2.908 11.218.189.33.41 1.287.997.508.716-.946.986-.178 1.36.18 1.441 1.385 2.732 2.95 4.848 3.51Zm25.503-25.276c-.991 3.466.931 7.058-1.45 10.84-1.737 2.763-2.396 6.379-4.408 9.246 1.691-1.189 2.877-2.752 3.85-4.508.299-.543.371-1.723 1.513-.676.436.4.533-.213.634-.525 1.518-4.842 1.466-9.656-.142-14.373l.003-.004ZM16.058 28.63c.065-.906.15-1.888-.387-2.316-1.358-1.083-1.249-2.448-1.22-3.892.008-.472.396-1.285-.454-1.36-.71-.06-.961.644-1.117 1.26-.56 2.167.923 5.186 3.178 6.308Zm44.005-.053c2.348-.94 4.006-4.666 3.019-6.649-.208-.416-.46-.936-.973-.855-.725.116-.29.741-.311 1.142-.067 1.213.274 2.619-.731 3.49-.982.838-.97 1.782-1.01 2.872h.006Zm1.963-9.996c-.438-1.37-1.313-1.7-2.315-1.379-2.308.742-4.003 2.473-5.934 3.857 3.11.248 4.868-3.417 8.25-2.478Z"/><path d="M38.087 44.551c-1.38-.113-2.764-.208-4.143-.346-.694-.069-1.383-.292-1.387-1.142 0-.82.645-1.071 1.339-1.242 3.129-.773 4.081-3.267 2.223-5.852-.48-.666-1.043-1.331-1.66-.071-.4.817-.858.545-1.269.011-.862-1.124-.874-2.283.016-3.383 2.225-2.751 6.951-2.888 9.358-.315.904.967 1.181 2.058.635 3.252-.381.827-.99 1.477-1.812.398-.546-.714-.87-.38-1.278.103-2.049 2.456-1.194 5.165 1.877 5.848.81.18 1.598.446 1.596 1.366 0 .852-.888.848-1.5 1.038-1.31.407-2.657.204-3.995.335Z"/></mask><path d="M41.194 0c4.753.335 9.474.908 14.177 1.685 5.377.888 10.645 2.165 15.784 3.976.29.102.56.262.848.368 4.038 1.497 4.04 1.496 4.04 5.823 0 12.136-.127 24.273.045 36.405.103 7.312-3.045 13.084-7.804 18.154-8.137 8.665-18.096 14.745-28.74 19.802-.507.239-.959.567-1.437.854h-.308c-3.113-1.676-6.248-3.309-9.334-5.034-8.12-4.54-15.623-9.89-21.823-16.9C2.94 60.946.194 56.157.112 50.504-.094 36.511.053 22.512.022 8.516c0-.936.338-1.368 1.178-1.678 6.37-2.357 12.932-4.011 19.6-5.26C25.496.698 30.267.406 35.02.001L41.194 0Zm30.984 31.198c0-6.533-.04-13.068.034-19.597.015-1.328-.431-1.896-1.65-2.284-7.993-2.552-16.136-4.338-24.521-5.055C31.995 3.062 18.39 5.08 5.074 9.5c-.851.281-1.185.69-1.181 1.65.043 12.814.033 25.616.048 38.424-.013.821.039 1.642.153 2.454.854 5.342 4.002 9.382 7.649 13.069 7.32 7.406 16.159 12.608 25.384 17.242.573.287 1.083.416 1.726.09 9.484-4.796 18.605-10.132 26.065-17.864 4.765-4.948 7.826-10.54 7.33-17.787-.354-5.17-.069-10.385-.07-15.58Z" fill="url(#a)"/><path d="M70.709 31.833c0 5.504-.16 11.013.048 16.508.191 5.064-1.725 9.196-4.805 12.966-5.663 6.926-12.966 11.772-20.585 16.211-1.015.594-2.181.999-3.086 1.727-2.847 2.291-5.416 1.838-8.464.079-7.993-4.614-15.813-9.402-22.15-16.24-4.083-4.414-6.52-9.333-6.363-15.648.286-11.565.095-23.142.053-34.715 0-1.043.265-1.558 1.284-1.89 20.883-6.815 41.757-6.886 62.652-.045 1.141.373 1.457.911 1.446 2.073-.062 6.32-.032 12.647-.03 18.974Zm-48.174 25.68c.264-.795-.053-1.243-.22-1.715-1.73-4.922-1.91-9.939-.875-15.014.156-.761.197-2.186 1.599-.823.652.634.808.012.998-.491a24.456 24.456 0 0 1 3.63-6.413c1.575-2.01 1.568-2.01-.547-3.254-.253-.149-.634-.353-.652-.56-.039-.417.442-.49.744-.65 1.65-.878 3.456-.888 5.26-.875 1.099.011 2.335.017 2.988-.895.654-.91 1.164-1.309 2.14-.686.824.527 1.745-.58 2.61.27.717.704 1.75.824 2.754.743 2.258-.18 4.522-.254 6.77.047 1.198.158 1.396-.311 1.237-1.37-.826-5.476-6.842-8.358-11.561-5.48-.988.603-1.812.762-2.791-.03-1.65-1.33-3.553-1.512-5.54-.875-2.295.737-4.575 1.522-6.872 2.252-.358.114-.846.472-1.142.037-1.361-2.02-3.68-2.665-5.565-3.924-.577-.388-1.306-.602-1.997-.753-.554-.127-.951.315-1.237.761-.234.364.01.598.325.686 2.247.635 3.02 2.577 4.039 4.37.41.725.278 2.61 2.139 1.566.277-.155.39.266.372.507-.041.61-.059 1.235-.206 1.824-.88 3.508-2.6 6.691-3.947 10.023-1.441 3.564-1.94 7.218-1.346 11.013.062.395.14 1.255.566.985 1.836-1.17 1.541.634 1.795 1.293 1.05 2.69 2.211 5.28 4.532 7.431Zm30.906-21.706c-1.121-2.727-2.979-4.076-5.156-5.06-.32-.144-.955-.098-1.173.128-1.812 1.86-3.183.907-4.519-.6-.165-.186-.42-.292-.634-.43-4.821-3.07-10.924.722-11.182 4.208-.254 3.426-.05 6.88-.01 10.32.009.693.254 1.324 1.123 1.409.99.098 2.48-.53 2.204 1.486-.013.086.303.253.487.323 2.116.83 4.263 1.157 6.45.275.497-.2 1.241-.355 1.049-1.088-.254-.975.22-1.06.933-.981 1.94.217 2.538-.74 2.467-2.551-.127-2.97-.433-5.932-.136-8.923.135-1.343.708-1.484 1.767-1.3 2.174.375 4.001 1.553 6.33 2.784ZM33.129 63.242c-.179-.168-.355-.337-.536-.5-3.292-2.962-5.576-6.684-7.568-10.544-1.153-2.236-1.32-4.87-1.834-7.375-.162.992-.22 1.998-.175 3.002.12 3.958.92 7.747 2.908 11.218.189.33.41 1.287.997.508.716-.946.986-.178 1.36.18 1.441 1.385 2.732 2.95 4.848 3.51Zm25.503-25.276c-.991 3.466.931 7.058-1.45 10.84-1.737 2.763-2.396 6.379-4.408 9.246 1.691-1.189 2.877-2.752 3.85-4.508.299-.543.371-1.723 1.513-.676.436.4.533-.213.634-.525 1.518-4.842 1.466-9.656-.142-14.373l.003-.004ZM16.058 28.63c.065-.906.15-1.888-.387-2.316-1.358-1.083-1.249-2.448-1.22-3.892.008-.472.396-1.285-.454-1.36-.71-.06-.961.644-1.117 1.26-.56 2.167.923 5.186 3.178 6.308Zm44.005-.053c2.348-.94 4.006-4.666 3.019-6.649-.208-.416-.46-.936-.973-.855-.725.116-.29.741-.311 1.142-.067 1.213.274 2.619-.731 3.49-.982.838-.97 1.782-1.01 2.872h.006Zm1.963-9.996c-.438-1.37-1.313-1.7-2.315-1.379-2.308.742-4.003 2.473-5.934 3.857 3.11.248 4.868-3.417 8.25-2.478Z" fill="url(#b)"/><path d="M38.087 44.551c-1.38-.113-2.764-.208-4.143-.346-.694-.069-1.383-.292-1.387-1.142 0-.82.645-1.071 1.339-1.242 3.129-.773 4.081-3.267 2.223-5.852-.48-.666-1.043-1.331-1.66-.071-.4.817-.858.545-1.269.011-.862-1.124-.874-2.283.016-3.383 2.225-2.751 6.951-2.888 9.358-.315.904.967 1.181 2.058.635 3.252-.381.827-.99 1.477-1.812.398-.546-.714-.87-.38-1.278.103-2.049 2.456-1.194 5.165 1.877 5.848.81.18 1.598.446 1.596 1.366 0 .852-.888.848-1.5 1.038-1.31.407-2.657.204-3.995.335Z" fill="url(#c)"/><path d="M41.194 0c4.753.335 9.474.908 14.177 1.685 5.377.888 10.645 2.165 15.784 3.976.29.102.56.262.848.368 4.038 1.497 4.04 1.496 4.04 5.823 0 12.136-.127 24.273.045 36.405.103 7.312-3.045 13.084-7.804 18.154-8.137 8.665-18.096 14.745-28.74 19.802-.507.239-.959.567-1.437.854h-.308c-3.113-1.676-6.248-3.309-9.334-5.034-8.12-4.54-15.623-9.89-21.823-16.9C2.94 60.946.194 56.157.112 50.504-.094 36.511.053 22.512.022 8.516c0-.936.338-1.368 1.178-1.678 6.37-2.357 12.932-4.011 19.6-5.26C25.496.698 30.267.406 35.02.001L41.194 0Zm30.984 31.198c0-6.533-.04-13.068.034-19.597.015-1.328-.431-1.896-1.65-2.284-7.993-2.552-16.136-4.338-24.521-5.055C31.995 3.062 18.39 5.08 5.074 9.5c-.851.281-1.185.69-1.181 1.65.043 12.814.033 25.616.048 38.424-.013.821.039 1.642.153 2.454.854 5.342 4.002 9.382 7.649 13.069 7.32 7.406 16.159 12.608 25.384 17.242.573.287 1.083.416 1.726.09 9.484-4.796 18.605-10.132 26.065-17.864 4.765-4.948 7.826-10.54 7.33-17.787-.354-5.17-.069-10.385-.07-15.58Z" stroke="#fff" stroke-width="3" mask="url(#d)"/><path d="M70.709 31.833c0 5.504-.16 11.013.048 16.508.191 5.064-1.725 9.196-4.805 12.966-5.663 6.926-12.966 11.772-20.585 16.211-1.015.594-2.181.999-3.086 1.727-2.847 2.291-5.416 1.838-8.464.079-7.993-4.614-15.813-9.402-22.15-16.24-4.083-4.414-6.52-9.333-6.363-15.648.286-11.565.095-23.142.053-34.715 0-1.043.265-1.558 1.284-1.89 20.883-6.815 41.757-6.886 62.652-.045 1.141.373 1.457.911 1.446 2.073-.062 6.32-.032 12.647-.03 18.974Zm-48.174 25.68c.264-.795-.053-1.243-.22-1.715-1.73-4.922-1.91-9.939-.875-15.014.156-.761.197-2.186 1.599-.823.652.634.808.012.998-.491a24.456 24.456 0 0 1 3.63-6.413c1.575-2.01 1.568-2.01-.547-3.254-.253-.149-.634-.353-.652-.56-.039-.417.442-.49.744-.65 1.65-.878 3.456-.888 5.26-.875 1.099.011 2.335.017 2.988-.895.654-.91 1.164-1.309 2.14-.686.824.527 1.745-.58 2.61.27.717.704 1.75.824 2.754.743 2.258-.18 4.522-.254 6.77.047 1.198.158 1.396-.311 1.237-1.37-.826-5.476-6.842-8.358-11.561-5.48-.988.603-1.812.762-2.791-.03-1.65-1.33-3.553-1.512-5.54-.875-2.295.737-4.575 1.522-6.872 2.252-.358.114-.846.472-1.142.037-1.361-2.02-3.68-2.665-5.565-3.924-.577-.388-1.306-.602-1.997-.753-.554-.127-.951.315-1.237.761-.234.364.01.598.325.686 2.247.635 3.02 2.577 4.039 4.37.41.725.278 2.61 2.139 1.566.277-.155.39.266.372.507-.041.61-.059 1.235-.206 1.824-.88 3.508-2.6 6.691-3.947 10.023-1.441 3.564-1.94 7.218-1.346 11.013.062.395.14 1.255.566.985 1.836-1.17 1.541.634 1.795 1.293 1.05 2.69 2.211 5.28 4.532 7.431Zm30.906-21.706c-1.121-2.727-2.979-4.076-5.156-5.06-.32-.144-.955-.098-1.173.128-1.812 1.86-3.183.907-4.519-.6-.165-.186-.42-.292-.634-.43-4.821-3.07-10.924.722-11.182 4.208-.254 3.426-.05 6.88-.01 10.32.009.693.254 1.324 1.123 1.409.99.098 2.48-.53 2.204 1.486-.013.086.303.253.487.323 2.116.83 4.263 1.157 6.45.275.497-.2 1.241-.355 1.049-1.088-.254-.975.22-1.06.933-.981 1.94.217 2.538-.74 2.467-2.551-.127-2.97-.433-5.932-.136-8.923.135-1.343.708-1.484 1.767-1.3 2.174.375 4.001 1.553 6.33 2.784ZM33.129 63.242c-.179-.168-.355-.337-.536-.5-3.292-2.962-5.576-6.684-7.568-10.544-1.153-2.236-1.32-4.87-1.834-7.375-.162.992-.22 1.998-.175 3.002.12 3.958.92 7.747 2.908 11.218.189.33.41 1.287.997.508.716-.946.986-.178 1.36.18 1.441 1.385 2.732 2.95 4.848 3.51Zm25.503-25.276c-.991 3.466.931 7.058-1.45 10.84-1.737 2.763-2.396 6.379-4.408 9.246 1.691-1.189 2.877-2.752 3.85-4.508.299-.543.371-1.723 1.513-.676.436.4.533-.213.634-.525 1.518-4.842 1.466-9.656-.142-14.373l.003-.004ZM16.058 28.63c.065-.906.15-1.888-.387-2.316-1.358-1.083-1.249-2.448-1.22-3.892.008-.472.396-1.285-.454-1.36-.71-.06-.961.644-1.117 1.26-.56 2.167.923 5.186 3.178 6.308Zm44.005-.053c2.348-.94 4.006-4.666 3.019-6.649-.208-.416-.46-.936-.973-.855-.725.116-.29.741-.311 1.142-.067 1.213.274 2.619-.731 3.49-.982.838-.97 1.782-1.01 2.872h.006Zm1.963-9.996c-.438-1.37-1.313-1.7-2.315-1.379-2.308.742-4.003 2.473-5.934 3.857 3.11.248 4.868-3.417 8.25-2.478Z" stroke="#fff" stroke-width="3" mask="url(#d)"/><path d="M38.087 44.551c-1.38-.113-2.764-.208-4.143-.346-.694-.069-1.383-.292-1.387-1.142 0-.82.645-1.071 1.339-1.242 3.129-.773 4.081-3.267 2.223-5.852-.48-.666-1.043-1.331-1.66-.071-.4.817-.858.545-1.269.011-.862-1.124-.874-2.283.016-3.383 2.225-2.751 6.951-2.888 9.358-.315.904.967 1.181 2.058.635 3.252-.381.827-.99 1.477-1.812.398-.546-.714-.87-.38-1.278.103-2.049 2.456-1.194 5.165 1.877 5.848.81.18 1.598.446 1.596 1.366 0 .852-.888.848-1.5 1.038-1.31.407-2.657.204-3.995.335Z" stroke="#fff" stroke-width="3" mask="url(#d)"/><defs><linearGradient id="a" x1="39.645" y1="0" x2="43.649" y2="87.024" gradientUnits="userSpaceOnUse"><stop stop-color="#044B2C"/><stop offset="1" stop-color="#0D8553"/></linearGradient><linearGradient id="b" x1="39.645" y1="0" x2="43.649" y2="87.024" gradientUnits="userSpaceOnUse"><stop stop-color="#044B2C"/><stop offset="1" stop-color="#0D8553"/></linearGradient><linearGradient id="c" x1="39.645" y1="0" x2="43.649" y2="87.024" gradientUnits="userSpaceOnUse"><stop stop-color="#044B2C"/><stop offset="1" stop-color="#0D8553"/></linearGradient></defs></svg>