<svg width="31" height="30" fill="none" xmlns="http://www.w3.org/2000/svg"><path d="M15.5 17.5c-1.444 0-2.68-.514-3.708-1.542s-1.542-2.264-1.542-3.708c0-1.444.514-2.68 1.542-3.708S14.056 7 15.5 7c1.444 0 2.68.514 3.708 1.542s1.542 2.264 1.542 3.708c0 1.444-.514 2.68-1.542 3.708S16.944 17.5 15.5 17.5ZM10.25 28 5 24.325c0-.744.192-1.428.575-2.051A3.824 3.824 0 0 1 7.1 20.847a19.508 19.508 0 0 1 4.134-1.527c1.4-.338 2.822-.508 4.266-.508s2.866.17 4.266.508c1.4.34 2.778.849 4.134 1.527a3.824 3.824 0 0 1 1.525 1.427c.383.623.575 1.307.575 2.051L21.579 28H10.25Z" fill="#fff"/><path d="M30 15c0 7.701-6.46 14-14.5 14S1 22.701 1 15 7.46 1 15.5 1 30 7.299 30 15Z" stroke="#fff" stroke-width="2"/></svg>